<?xml version="1.0" encoding="utf-8"?>
<!-- Generator: Adobe Illustrator 27.7.0, SVG Export Plug-In . SVG Version: 6.00 Build 0)  -->
<svg version="1.1" id="Calque_1" xmlns="http://www.w3.org/2000/svg" xmlns:xlink="http://www.w3.org/1999/xlink" x="0px" y="0px"
	 viewBox="0 0 206 206" style="enable-background:new 0 0 206 206;" xml:space="preserve">
<style type="text/css">
	.st0{fill:#E24329;}
	.st1{fill:#FC6D26;}
	.st2{fill:#FCA326;}
</style>
<g id="LOGO">
	<path class="st0" d="M195.8,83.7l-0.3-0.7l-26.1-68.2c-0.5-1.3-1.5-2.5-2.7-3.2c-2.5-1.5-5.7-1.4-8,0.4c-1.1,0.9-1.9,2.1-2.3,3.5
		l-17.6,54H67.3l-17.6-54c-0.4-1.4-1.2-2.6-2.3-3.5c-2.3-1.8-5.5-2-8-0.4c-1.2,0.8-2.2,1.9-2.7,3.2L10.4,83l-0.3,0.7
		c-7.7,20.2-1.2,43.1,16.1,56.1l0.1,0.1l0.2,0.2l39.8,29.8l19.7,14.9l12,9.1c2.9,2.2,6.9,2.2,9.8,0l12-9.1l19.7-14.9l40.1-30
		l0.1-0.1C197,126.7,203.5,103.9,195.8,83.7z"/>
	<path class="st1" d="M195.8,83.7l-0.3-0.7c-12.7,2.6-24.7,8-35.1,15.8L103,142.2c19.6,14.8,36.6,27.6,36.6,27.6l40.1-30l0.1-0.1
		C197,126.8,203.5,103.9,195.8,83.7z"/>
	<path class="st2" d="M66.4,169.9l19.7,14.9l12,9.1c2.9,2.2,6.9,2.2,9.8,0l12-9.1l19.7-14.9c0,0-17-12.9-36.6-27.6
		C83.4,157,66.4,169.9,66.4,169.9z"/>
	<path class="st1" d="M45.6,98.8C35.2,91,23.2,85.6,10.4,83l-0.3,0.7c-7.7,20.2-1.2,43.1,16.1,56.1l0.1,0.1l0.2,0.2l39.8,29.8
		c0,0,17-12.9,36.6-27.6L45.6,98.8z"/>
</g>
</svg>
