<svg xmlns="http://www.w3.org/2000/svg" width="100%" height="100%" viewBox="0 0 267 51"><style>.a{fill:#FFF;}</style><rect width="267" height="51" fill="#E0E0E0"/><polygon points="179 51.2 -0.2 51.2 -0.2 -0.2 187.2 -0.2 "/><path d="M16.8 29.7l-2.7 15.9h-9l6.7-40h14.8c3.7 0 6.6 0.4 8.6 1.2 2 0.8 3.6 2.2 4.8 4.2 1.2 2 1.7 4 1.7 6.2 0 2.3-0.7 4.5-2.1 6.7 -1.4 2.1-3.7 3.6-6.9 4.4l5 17.3h-9.3l-4.2-15.9H16.8zM19.5 12.6l-1.7 10.1h5.9c2.3 0 4-0.2 5.1-0.5 1.1-0.3 2-0.9 2.7-1.8 0.7-0.9 1-1.9 1-3.2 0-1.7-0.5-2.9-1.6-3.6 -1.1-0.7-2.8-1.1-5.3-1.1H19.5z" class="a"/><path d="M79.5 5.6l-1.3 7.6H59.4l-1.4 8.2h15.7l-1.2 7.2H56.8l-1.6 9.4h19.1l-1.3 7.6H44.6l6.7-40H79.5z" class="a"/><path d="M110.7 15.4l-8.2 1.9c-0.9-3.3-3.2-5-6.8-5 -1.7 0-3 0.4-4 1.2 -1 0.8-1.5 1.8-1.5 2.9 0 1.1 0.4 2 1.2 2.6 0.8 0.6 2.3 1.2 4.6 1.7 3.3 0.8 5.8 1.7 7.7 2.6 1.9 0.9 3.3 2.2 4.3 3.8 1 1.6 1.5 3.6 1.5 6 0 3.8-1.4 6.9-4.2 9.4 -2.8 2.5-6.7 3.8-11.8 3.8 -4.4 0-8-1-10.9-3s-4.7-5.1-5.4-9.1l8.6-1.2c0.9 4 3.6 5.9 8.1 5.9 2.1 0 3.6-0.4 4.7-1.3 1.1-0.9 1.6-2 1.6-3.3 0-1.3-0.4-2.2-1.2-2.8 -0.8-0.6-2.8-1.3-5.8-2.1 -2.8-0.7-4.9-1.5-6.6-2.4 -1.6-0.9-2.9-2.1-3.9-3.7 -1-1.6-1.4-3.4-1.4-5.5 0-3.4 1.3-6.4 3.8-8.9 2.6-2.6 6.1-3.9 10.6-3.9C103.4 4.9 108.4 8.4 110.7 15.4z" class="a"/><path d="M148.2 5.6l-1.3 7.6h-18.8l-1.4 8.2h15.7l-1.2 7.2h-15.7l-1.6 9.4h19.1l-1.3 7.6h-28.5l6.7-40H148.2z" class="a"/><path d="M163.4 5.6l-5.4 32.4h15.7l-1.3 7.6h-24.9l6.7-40H163.4z" class="a"/><path d="M223.7 12.4H213l-5.8 34.6h-9.8l5.8-34.6h-10.7l1.3-8.1h31.3L223.7 12.4z"/><path d="M262.9 4.3l-19.6 42.7h-10.3L226.7 4.3h9.8l4.1 31.9 13.8-31.9H262.9z"/></svg>