<?xml version="1.0" encoding="UTF-8" standalone="no"?>
<svg
   xmlns:dc="http://purl.org/dc/elements/1.1/"
   xmlns:cc="http://creativecommons.org/ns#"
   xmlns:rdf="http://www.w3.org/1999/02/22-rdf-syntax-ns#"
   xmlns:svg="http://www.w3.org/2000/svg"
   xmlns="http://www.w3.org/2000/svg"
   id="svg15"
   version="1.1"
   xml:space="preserve"
   enable-background="new 0 0 269.292 269.292"
   overflow="visible"
   viewBox="0 0 269.292 269.292"
   height="269.292"
   width="269.292"><metadata
   id="metadata21"><rdf:RDF><cc:Work
       rdf:about=""><dc:format>image/svg+xml</dc:format><dc:type
         rdf:resource="http://purl.org/dc/dcmitype/StillImage" /><dc:title></dc:title></cc:Work></rdf:RDF></metadata><defs
   id="defs19" />

		<g
   id="Calque_1">
			<rect
   id="rect2"
   height="269.292"
   width="269.292" /> 
			<circle
   id="circle4"
   r="113.386"
   cy="134.646"
   cx="134.646"
   fill="#FFFFFF" /> 
			<g
   id="g12">
				<path
   id="path6"
   d="M65.034,131.454v23.94h-45v-23.94H65.034z" />
				<path
   id="path8"
   d="M112.012,67.193v135.72h-26.1V90.593h-12.96v-23.4H112.012z" />
				<path
   id="path10"
   d="M205.611,135.053c0,23.94-5.58,70.021-38.16,70.021s-38.16-46.08-38.16-70.021      c0-23.94,5.58-70.02,38.16-70.02S205.611,111.113,205.611,135.053z M155.39,135.053c0,8.82-1.26,45.54,12.061,45.54      s12.061-36.72,12.061-45.54c0-8.82,1.26-45.54-12.061-45.54S155.39,126.233,155.39,135.053z" />
			</g>
		</g>
	</svg>