<?xml version="1.0" encoding="UTF-8"?><svg enable-background="new 0 0 269.292 269.292" overflow="visible" version="1.1" viewBox="0 0 269.29 269.29" xml:space="preserve" xmlns="http://www.w3.org/2000/svg"><rect width="269.29" height="269.29"/><circle cx="134.65" cy="134.65" r="113.39" fill="#fff"/><path d="m65.034 131.45v23.94h-45v-23.94h45z"/><path d="m112.01 67.193v135.72h-26.1v-112.32h-12.96v-23.4h39.06z"/><path d="m205.61 135.05c0 23.94-5.58 70.021-38.16 70.021s-38.16-46.08-38.16-70.021c0-23.94 5.58-70.02 38.16-70.02s38.16 46.08 38.16 70.02zm-50.221 0c0 8.82-1.26 45.54 12.061 45.54s12.061-36.72 12.061-45.54 1.26-45.54-12.061-45.54-12.061 36.72-12.061 45.54z"/></svg>