<?xml version="1.0" encoding="UTF-8"?><svg enable-background="new 0 0 269.292 269.292" overflow="visible" version="1.1" viewBox="0 0 269.29 269.29" xml:space="preserve" xmlns="http://www.w3.org/2000/svg"><rect width="269.29" height="269.29"/><circle cx="134.65" cy="134.65" r="113.39" fill="#fff"/><path d="m65.034 131.45v23.94h-45v-23.94h45z"/><path d="m112.01 67.193v135.72h-26.1v-112.32h-12.96v-23.4h39.06z"/><path d="m132.71 114.35-0.36-7.38c0-25.2 7.2-42.12 35.459-42.12 22.5 0 36.541 11.34 36.541 34.74 0 13.86-4.86 24.84-11.16 36.9l-22.68 43.02h31.5v23.4h-71.28l30.6-56.16c7.021-12.96 17.46-31.32 17.46-46.26 0-7.02-2.16-16.74-10.8-16.74-10.261 0-10.8 14.58-10.8 21.96l0.359 8.64h-24.839z"/></svg>