<?xml version="1.0" encoding="UTF-8" standalone="no"?>
<svg
   xmlns:dc="http://purl.org/dc/elements/1.1/"
   xmlns:cc="http://creativecommons.org/ns#"
   xmlns:rdf="http://www.w3.org/1999/02/22-rdf-syntax-ns#"
   xmlns:svg="http://www.w3.org/2000/svg"
   xmlns="http://www.w3.org/2000/svg"
   id="svg15"
   version="1.1"
   xml:space="preserve"
   enable-background="new 0 0 269.292 269.292"
   overflow="visible"
   viewBox="0 0 269.292 269.292"
   height="269.292"
   width="269.292"><metadata
   id="metadata21"><rdf:RDF><cc:Work
       rdf:about=""><dc:format>image/svg+xml</dc:format><dc:type
         rdf:resource="http://purl.org/dc/dcmitype/StillImage" /><dc:title></dc:title></cc:Work></rdf:RDF></metadata><defs
   id="defs19" />

		<g
   id="Calque_1">
			<rect
   id="rect2"
   height="269.292"
   width="269.292" /> 
			<circle
   id="circle4"
   r="113.386"
   cy="134.646"
   cx="134.646"
   fill="#FFFFFF" /> 
			<g
   id="g12">
				<path
   id="path6"
   d="M65.034,131.454v23.94h-45v-23.94H65.034z" />
				<path
   id="path8"
   d="M112.012,67.193v135.72h-26.1V90.593h-12.96v-23.4H112.012z" />
				<path
   id="path10"
   d="M132.71,114.354l-0.36-7.38c0-25.2,7.2-42.12,35.459-42.12c22.5,0,36.541,11.34,36.541,34.74      c0,13.86-4.86,24.84-11.16,36.9l-22.68,43.02h31.5v23.4H130.73l30.6-56.16c7.021-12.96,17.46-31.32,17.46-46.26      c0-7.02-2.16-16.74-10.8-16.74c-10.261,0-10.8,14.58-10.8,21.96l0.359,8.64H132.71z" />
			</g>
		</g>
	</svg>