<?xml version="1.0" encoding="UTF-8" standalone="no"?>
<svg
   xmlns:dc="http://purl.org/dc/elements/1.1/"
   xmlns:cc="http://creativecommons.org/ns#"
   xmlns:rdf="http://www.w3.org/1999/02/22-rdf-syntax-ns#"
   xmlns:svg="http://www.w3.org/2000/svg"
   xmlns="http://www.w3.org/2000/svg"
   id="svg15"
   version="1.1"
   xml:space="preserve"
   enable-background="new 0 0 269.292 269.292"
   overflow="visible"
   viewBox="0 0 269.292 269.292"
   height="269.292"
   width="269.292"><metadata
   id="metadata21"><rdf:RDF><cc:Work
       rdf:about=""><dc:format>image/svg+xml</dc:format><dc:type
         rdf:resource="http://purl.org/dc/dcmitype/StillImage" /><dc:title></dc:title></cc:Work></rdf:RDF></metadata><defs
   id="defs19" />
		<g
   id="Calque_1">
			<rect
   id="rect2"
   height="269.292"
   width="269.292" /> 
			<circle
   id="circle4"
   r="113.386"
   cy="134.646"
   cx="134.646"
   fill="#FFFFFF" /> 
			<g
   id="g12">
				<path
   id="path6"
   d="M65.034,131.454v23.94h-45v-23.94H65.034z" />
				<path
   id="path8"
   d="M112.012,67.193v135.72h-26.1V90.593h-12.96v-23.4H112.012z" />
				<path
   id="path10"
   d="M186.351,67.193l-25.92,52.92l0.359,0.36c5.04-4.5,9.721-7.38,16.92-7.38      c20.521,0,27.36,25.74,27.36,42.12c0,24.3-9.54,49.86-37.979,49.86c-27,0-37.081-23.94-37.081-47.7c0-24.66,9-45.36,19.26-67.14      l11.16-23.04H186.351z M156.111,160.253c0,6.48,2.34,21.96,11.34,21.96c10.26,0,11.52-17.28,11.52-24.12      c0-6.66-1.619-21.24-10.8-21.24C158.091,136.853,156.111,153.414,156.111,160.253z" />
			</g>
		</g>
	</svg>