<?xml version="1.0" encoding="UTF-8"?><svg enable-background="new 0 0 269.292 269.292" overflow="visible" version="1.1" viewBox="0 0 269.29 269.29" xml:space="preserve" xmlns="http://www.w3.org/2000/svg"><rect width="269.29" height="269.29"/><circle cx="134.65" cy="134.65" r="113.39" fill="#fff"/><path d="m65.034 131.45v23.94h-45v-23.94h45z"/><path d="m112.01 67.193v135.72h-26.1v-112.32h-12.96v-23.4h39.06z"/><path d="m186.35 67.193-25.92 52.92 0.359 0.36c5.04-4.5 9.721-7.38 16.92-7.38 20.521 0 27.36 25.74 27.36 42.12 0 24.3-9.54 49.86-37.979 49.86-27 0-37.081-23.94-37.081-47.7 0-24.66 9-45.36 19.26-67.14l11.16-23.04h25.921zm-30.24 93.06c0 6.48 2.34 21.96 11.34 21.96 10.26 0 11.52-17.28 11.52-24.12 0-6.66-1.619-21.24-10.8-21.24-10.08 0-12.06 16.561-12.06 23.4z"/></svg>