<?xml version="1.0" encoding="UTF-8"?><svg enable-background="new 0 0 269.292 269.292" overflow="visible" version="1.1" viewBox="0 0 269.29 269.29" xml:space="preserve" xmlns="http://www.w3.org/2000/svg"><rect width="269.29" height="269.29"/><circle cx="134.65" cy="134.65" r="113.39" fill="#fff"/><path d="m65.034 131.45v23.94h-45v-23.94h45z"/><path d="m112.01 67.193v135.72h-26.1v-112.32h-12.96v-23.4h39.06z"/><path d="m152.15 129.47c-12.24-4.14-18.54-15.84-18.54-28.62 0-19.98 13.32-35.82 34.02-35.82 20.521 0 33.84 15.84 33.84 35.82 0 12.78-6.119 24.3-18.539 28.8v0.18c16.92 5.4 23.58 18.9 23.58 36 0 22.32-16.201 39.24-38.881 39.24s-39.06-16.92-39.06-39.24c0-17.46 6.66-30.42 23.58-36v-0.36zm3.96 32.94c0 7.02 1.98 19.26 11.34 19.26 9.18 0 11.52-12.6 11.52-19.26s-2.879-19.62-11.699-19.62c-9.181-1e-3 -11.161 12.6-11.161 19.62zm10.98-46.621c8.279 0 8.279-10.26 8.279-15.3 0-4.86-0.9-14.4-8.279-14.4-6.48 0-7.381 9.36-7.381 14.22 0 5.22 0.721 15.48 7.381 15.48z"/></svg>