<?xml version="1.0" encoding="utf-8"?><svg version="1.1" xmlns="http://www.w3.org/2000/svg" x="0px" y="0px" width="972.146px" height="269.292px" viewBox="0 0 972.146 269.292" xml:space="preserve"><path fill="#303030" d="M838.573,21.26H134.646C72.024,21.26,21.26,72.025,21.26,134.646s50.765,113.386,113.386,113.386h703.927c62.621,0,113.387-50.765,113.387-113.386S901.194,21.26,838.573,21.26z"/><g><path fill="#FFFFFF" d="M176.913,105.379h-29.956v85.767h-23.73v-85.767h-29.81V86.117h83.496V105.379z"/><path fill="#FFFFFF" d="M211.043,192.977c-12.5,0-22.327-3.503-29.479-10.511c-7.154-7.006-10.73-16.516-10.73-28.527c0-12.402,3.71-22.106,11.133-29.114c7.422-7.006,17.456-10.51,30.103-10.51c12.451,0,22.217,3.504,29.297,10.51c7.079,7.007,10.62,16.272,10.62,27.795c0,12.451-3.65,22.291-10.949,29.517C233.736,189.365,223.739,192.977,211.043,192.977zM211.629,132.04c-5.469,0-9.717,1.88-12.744,5.64c-3.028,3.761-4.541,9.082-4.541,15.967c0,14.404,5.811,21.606,17.432,21.606c11.084,0,16.626-7.397,16.626-22.192C228.402,139.046,222.81,132.04,211.629,132.04z"/><path fill="#FFFFFF" d="M338.265,191.146h-23.071V179.72h-0.366c-5.713,8.838-13.355,13.257-22.925,13.257c-17.384,0-26.074-10.521-26.074-31.567v-45.264H288.9v43.213c0,10.596,4.199,15.894,12.598,15.894c4.149,0,7.471-1.452,9.961-4.358c2.49-2.904,3.735-6.848,3.735-11.828v-42.92h23.071V191.146z"/><path fill="#FFFFFF" d="M403.084,190.267c-3.418,1.806-8.569,2.71-15.454,2.71c-16.309,0-24.463-8.471-24.463-25.415v-34.351h-12.158v-17.065h12.158V99.959l23.071-6.592v22.778h16.846v17.065h-16.846v30.322c0,7.813,3.101,11.719,9.302,11.719c2.441,0,4.955-0.707,7.544-2.124V190.267z"/><path fill="#FFFFFF" d="M480.941,182.43h-0.293v43.213h-23.145V116.146h23.145v11.279h0.293c5.713-8.74,13.744-13.11,24.097-13.11c9.716,0,17.224,3.333,22.521,9.998s7.947,15.736,7.947,27.209c0,12.501-3.089,22.534-9.266,30.103c-6.177,7.569-14.392,11.353-24.646,11.353C492.561,192.977,485.676,189.461,480.941,182.43zM480.282,151.668v6.006c0,5.177,1.366,9.4,4.102,12.671c2.734,3.271,6.323,4.907,10.767,4.907c5.273,0,9.362-2.038,12.269-6.116c2.904-4.076,4.357-9.851,4.357-17.321c0-13.184-5.127-19.775-15.381-19.775c-4.736,0-8.605,1.794-11.609,5.384C481.784,141.011,480.282,145.761,480.282,151.668z"/><path fill="#FFFFFF" d="M621.786,191.146h-23.071V179.72h-0.366c-5.713,8.838-13.355,13.257-22.925,13.257c-17.384,0-26.074-10.521-26.074-31.567v-45.264h23.071v43.213c0,10.596,4.199,15.894,12.598,15.894c4.149,0,7.471-1.452,9.961-4.358c2.49-2.904,3.735-6.848,3.735-11.828v-42.92h23.071V191.146z"/><path fill="#FFFFFF" d="M664.706,182.43h-0.293v8.716h-23.145V80.111h23.145v47.314h0.293c5.713-8.74,13.843-13.11,24.39-13.11c9.668,0,17.113,3.321,22.339,9.961c5.225,6.641,7.837,15.724,7.837,27.246c0,12.501-3.052,22.534-9.155,30.103c-6.104,7.569-14.258,11.353-24.463,11.353C676.424,192.977,669.441,189.461,664.706,182.43zM664.046,150.79v7.69c0,4.834,1.392,8.838,4.175,12.012c2.783,3.175,6.347,4.761,10.693,4.761c5.273,0,9.362-2.038,12.269-6.116c2.904-4.076,4.357-9.851,4.357-17.321c0-6.2-1.331-11.047-3.992-14.538c-2.661-3.491-6.457-5.237-11.389-5.237c-4.64,0-8.484,1.734-11.535,5.2C665.572,140.708,664.046,145.223,664.046,150.79z"/><path fill="#FFFFFF" d="M757.43,191.146h-23.145V80.111h23.145V191.146z"/><path fill="#FFFFFF" d="M788.631,104.281c-3.907,0-7.104-1.159-9.595-3.479c-2.49-2.318-3.735-5.164-3.735-8.533c0-3.466,1.245-6.299,3.735-8.496s5.688-3.296,9.595-3.296c3.955,0,7.165,1.099,9.632,3.296c2.465,2.197,3.698,5.03,3.698,8.496c0,3.516-1.233,6.397-3.698,8.643C795.796,103.158,792.586,104.281,788.631,104.281z M800.057,191.146h-23.145v-75h23.145V191.146z"/><path fill="#FFFFFF" d="M876.375,188.436c-5.226,3.026-12.77,4.541-22.632,4.541c-11.524,0-20.85-3.49-27.979-10.474c-7.13-6.982-10.693-15.99-10.693-27.026c0-12.744,3.82-22.79,11.463-30.139c7.641-7.348,17.858-11.023,30.651-11.023c8.837,0,15.234,1.172,19.189,3.516v19.629c-4.834-3.613-10.229-5.42-16.187-5.42c-6.641,0-11.902,1.941-15.783,5.823c-3.883,3.881-5.823,9.24-5.823,16.076c0,6.641,1.855,11.854,5.566,15.637c3.71,3.785,8.813,5.677,15.308,5.677c5.761,0,11.4-1.806,16.919-5.42V188.436z"/></g></svg>